<svg xmlns="http://www.w3.org/2000/svg" width="162.594" height="59.773" viewBox="0 0 162.594 59.773">
  <g id="レイヤー_2" data-name="レイヤー 2" transform="translate(0)">
    <g id="JP" transform="translate(0)">
      <path id="パス_12444" data-name="パス 12444" d="M148.444,0H11.23A20.193,20.193,0,0,0,8.241.269a10.074,10.074,0,0,0-2.84.942A9.417,9.417,0,0,0,2.98,2.989,9.073,9.073,0,0,0,1.216,5.411a10.074,10.074,0,0,0-.942,2.84A18.2,18.2,0,0,0,.02,11.24c0,.463,0,.927,0,1.375V48.548a18.206,18.206,0,0,0,.254,2.989,10.164,10.164,0,0,0,.942,2.855A9.252,9.252,0,0,0,2.98,56.8,9.073,9.073,0,0,0,5.4,58.562a10.074,10.074,0,0,0,2.84.942,20.194,20.194,0,0,0,2.989.269H151.448a20.015,20.015,0,0,0,2.989-.269,10.329,10.329,0,0,0,2.855-.942A9.252,9.252,0,0,0,159.7,56.8a9.656,9.656,0,0,0,1.719-2.406,10.1,10.1,0,0,0,.912-2.855,18.236,18.236,0,0,0,.284-2.989V11.24a18.236,18.236,0,0,0-.284-2.989,10.014,10.014,0,0,0-.912-2.84A9.461,9.461,0,0,0,159.7,2.989a9.6,9.6,0,0,0-2.406-1.764,10.329,10.329,0,0,0-2.855-.942,20.014,20.014,0,0,0-2.989-.269h-2.989Z" transform="translate(-0.02)" fill="#b1b1b1"/>
      <path id="パス_12445" data-name="パス 12445" d="M12.17,58.047H10.825a17.219,17.219,0,0,1-2.8-.194,8.8,8.8,0,0,1-2.5-.9,7.883,7.883,0,0,1-3.572-3.587,8.654,8.654,0,0,1-.822-2.481,18.086,18.086,0,0,1-.239-2.8c0-.314,0-1.375,0-1.375V10.845a17.937,17.937,0,0,1,.239-2.8,8.5,8.5,0,0,1,.807-2.511A7.563,7.563,0,0,1,3.441,3.446,8.251,8.251,0,0,1,5.534,1.951a8.654,8.654,0,0,1,2.481-.822A18.086,18.086,0,0,1,10.825.89H150.983a17.757,17.757,0,0,1,2.78.239,8.6,8.6,0,0,1,2.5.822,8.042,8.042,0,0,1,2.093,1.495,8.639,8.639,0,0,1,1.495,2.108,8.37,8.37,0,0,1,.792,2.466,18.4,18.4,0,0,1,.344,2.825V48.093a19.609,19.609,0,0,1-.254,2.765,8.744,8.744,0,0,1-.807,2.5,8.474,8.474,0,0,1-1.495,2.078,7.758,7.758,0,0,1-2.093,1.495,8.46,8.46,0,0,1-2.5.822,16.951,16.951,0,0,1-2.8.239H12.2Z" transform="translate(0.415 0.44)"/>
      <path id="パス_12446" data-name="パス 12446" d="M44.5,20.384H38.451l-1.495,4.3H34.43L40.155,8.8H42.83l5.725,15.889h-2.6Zm-5.426-1.973h4.8L41.5,11.446h0Z" transform="translate(17.003 4.353)" fill="#fff"/>
      <path id="パス_12447" data-name="パス 12447" d="M55.781,17.49c0,3.6-1.928,5.979-4.828,5.979a3.931,3.931,0,0,1-3.647-2.033h0v5.695H44.87V11.705h2.3v1.973h0a4.125,4.125,0,0,1,3.692-2.048C53.853,11.586,55.781,13.9,55.781,17.49Zm-2.436,0c0-2.347-1.211-3.886-2.989-3.886s-2.989,1.584-2.989,3.886,1.211,3.9,2.989,3.9,2.989-1.525,2.989-3.9Z" transform="translate(22.167 5.753)" fill="#fff"/>
      <path id="パス_12448" data-name="パス 12448" d="M64.311,17.49c0,3.6-1.928,5.979-4.828,5.979a3.931,3.931,0,0,1-3.692-2.093h0v5.755H53.4V11.705h2.3v1.973h0a4.125,4.125,0,0,1,3.692-2.048C62.383,11.586,64.311,13.9,64.311,17.49Zm-2.436,0c0-2.347-1.211-3.886-2.989-3.886S55.9,15.188,55.9,17.49s1.211,3.9,2.989,3.9S61.875,19.866,61.875,17.49Z" transform="translate(26.387 5.753)" fill="#fff"/>
      <path id="パス_12449" data-name="パス 12449" d="M67.146,20.353c.179,1.569,1.7,2.6,3.8,2.6S74.4,21.923,74.4,20.5s-.882-1.973-2.989-2.481l-2.063-.493c-2.855-.7-4.2-2.063-4.2-4.29,0-2.735,2.392-4.619,5.785-4.619s5.65,1.883,5.74,4.619H74.246C74.1,11.654,72.751,10.7,70.883,10.7s-3.229.972-3.229,2.377c0,1.136.837,1.794,2.885,2.3l1.749.419c3.258.777,4.6,2.093,4.6,4.484,0,2.989-2.362,4.828-6.128,4.828-3.513,0-5.979-1.809-6.054-4.678Z" transform="translate(31.982 4.264)" fill="#fff"/>
      <path id="パス_12450" data-name="パス 12450" d="M77.651,9.84v2.75h2.2v1.883h-2.2v6.382c0,.987.433,1.495,1.405,1.495h.792v1.779a7.2,7.2,0,0,1-1.33.1c-2.347,0-3.258-.882-3.258-3.124V14.474H73.57V12.59h1.689V9.84Z" transform="translate(36.365 4.868)" fill="#fff"/>
      <path id="パス_12451" data-name="パス 12451" d="M78.63,17.529c0-3.647,2.137-5.979,5.486-5.979s5.5,2.287,5.5,5.979-2.122,5.979-5.5,5.979S78.63,21.191,78.63,17.529Zm8.565,0c0-2.5-1.151-3.976-3.079-3.976s-2.989,1.495-2.989,3.976S82.262,21.5,84.116,21.5,87.195,20.04,87.195,17.529Z" transform="translate(38.868 5.714)" fill="#fff"/>
      <path id="パス_12452" data-name="パス 12452" d="M87.29,11.72h2.272v1.973h0a2.765,2.765,0,0,1,2.8-2.093,3.438,3.438,0,0,1,.807.09V13.9a3.363,3.363,0,0,0-1.061-.135,2.392,2.392,0,0,0-2.481,2.661V23.3H87.29Z" transform="translate(43.153 5.738)" fill="#fff"/>
      <path id="パス_12453" data-name="パス 12453" d="M102.048,19.9a4.663,4.663,0,0,1-4.992,3.542c-3.363,0-5.456-2.272-5.456-5.874s2.093-5.979,5.351-5.979,5.216,2.212,5.216,5.725v.867H93.992v.149A2.989,2.989,0,0,0,97.115,21.6a2.631,2.631,0,0,0,2.676-1.629Zm-8.041-3.453h5.785a2.78,2.78,0,0,0-2.84-2.989A2.989,2.989,0,0,0,94.006,16.448Z" transform="translate(45.285 5.734)" fill="#fff"/>
      <path id="パス_12454" data-name="パス 12454" d="M37.459,34.253l.09-1.211a4.484,4.484,0,0,0,1.495.224c.448,0,.613,0,.822-.329a6.935,6.935,0,0,0,.643-3.468c0-1.271-.389-1.629-1.39-1.629h-.762A20.1,20.1,0,0,1,35.71,34l-1.166-.628a16.8,16.8,0,0,0,2.466-5.411,19.432,19.432,0,0,0-2.3.389l-.329-1.285c.867-.164,1.9-.3,2.855-.389a28.551,28.551,0,0,0,.433-2.825l1.375.164c-.12.852-.284,1.7-.478,2.556h.553c1.779,0,2.646.882,2.646,2.765a8.759,8.759,0,0,1-.822,4.185,1.719,1.719,0,0,1-1.689.9,7.279,7.279,0,0,1-1.794-.164Zm4.484-7.578,1.031-.688a7.967,7.967,0,0,1,2.406,5.2l-1.36.209a6.5,6.5,0,0,0-2.033-4.724Z" transform="translate(16.978 11.799)" fill="#fff"/>
      <path id="パス_12455" data-name="パス 12455" d="M45.649,34.442l-.284-1.256h1.091c2.8,0,3.841-.777,3.841-1.943,0-.942-.6-1.495-1.958-1.495a5.979,5.979,0,0,0-3.856,1.883l-1.076-.478a8.266,8.266,0,0,1,1.2-5.276l1.256.4a5.471,5.471,0,0,0-1.076,3.767,7.16,7.16,0,0,1,3.841-1.315c1.883,0,2.989.972,2.989,2.556,0,1.988-1.584,3.214-5.366,3.214ZM44.318,25.1l.359-1.241a39.565,39.565,0,0,1,5.53,1.271l-.344,1.226A31.643,31.643,0,0,0,44.318,25.1Z" transform="translate(21.418 11.804)" fill="#fff"/>
      <path id="パス_12456" data-name="パス 12456" d="M52.189,33.713a8.684,8.684,0,0,0,3.782-2.436A14.529,14.529,0,0,0,53.34,29.5l.777-.972a16.786,16.786,0,0,1,2.676,1.764,8.968,8.968,0,0,0,1.375-3.258H54.581a14.274,14.274,0,0,1-2.989,3.542l-1.031-.9A13.273,13.273,0,0,0,54.4,24.312l1.345.329c-.149.389-.3.792-.493,1.181h3.438l1,.463a10.672,10.672,0,0,1-6.681,8.49Zm5.979-9.82.777-.374a8.235,8.235,0,0,1,1,1.734l-.882.4a8.176,8.176,0,0,0-.927-1.764Zm1.749-.135.807-.389a10.313,10.313,0,0,1,.957,1.779l-.9.374a7.219,7.219,0,0,0-.9-1.764Z" transform="translate(24.982 11.561)" fill="#fff"/>
      <path id="パス_12457" data-name="パス 12457" d="M61.964,34.517l-.717-1.136a5.979,5.979,0,0,0,4.962-6.2H60.23v2.855H58.81V25.968h3.527V23.89h1.42v2.078h2.631l1.3.359C67.584,30.317,66.239,33.381,61.964,34.517Z" transform="translate(29.063 11.818)" fill="#fff"/>
      <path id="パス_12458" data-name="パス 12458" d="M66.62,25.721l.792-1.151a17.323,17.323,0,0,1,3.468,2.137l-.912,1.211a16.546,16.546,0,0,0-3.348-2.2Zm.269,6.965a10.941,10.941,0,0,0,8.116-5.844l.942,1.031A11.958,11.958,0,0,1,67.427,34Z" transform="translate(32.927 12.155)" fill="#fff"/>
      <path id="パス_12459" data-name="パス 12459" d="M83.5,33.215H74.65V24.83H83.5ZM76.025,26.13v5.784H82V26.13Z" transform="translate(36.9 12.283)" fill="#fff"/>
      <path id="パス_12460" data-name="パス 12460" d="M92.345,28.375H82.39V27h9.955Z" transform="translate(40.729 13.357)" fill="#fff"/>
      <path id="パス_12461" data-name="パス 12461" d="M91.31,24.009h1.405v3.6a44.841,44.841,0,0,1,5.366,2.69l-.792,1.241a32.676,32.676,0,0,0-4.574-2.466V34.5H91.31Zm3.318.762.822-.389a8.968,8.968,0,0,1,1,1.913l-.912.4a8.429,8.429,0,0,0-.912-1.928Zm1.6-.643.837-.389a8.625,8.625,0,0,1,1.061,1.883l-.912.4A9.761,9.761,0,0,0,96.228,24.129Z" transform="translate(45.141 11.744)" fill="#fff"/>
      <path id="パス_12462" data-name="パス 12462" d="M32.081,23.431a7.354,7.354,0,0,1,3.528-6.2A7.593,7.593,0,0,0,29.63,14c-2.5-.269-4.933,1.495-6.218,1.495S20.138,14,18.016,14a7.937,7.937,0,0,0-6.681,4.081C8.51,23.147,10.6,30.456,13.367,34.551c1.39,1.988,2.989,4.2,5.127,4.11s2.84-1.315,5.351-1.315,3.2,1.315,5.366,1.27,3.632-1.988,4.962-3.991a16.576,16.576,0,0,0,2.272-4.619A7.13,7.13,0,0,1,32.081,23.431Z" transform="translate(4.913 6.912)" fill="#fff"/>
      <path id="パス_12463" data-name="パス 12463" d="M23.608,13.937A7.309,7.309,0,0,0,25.267,8.72a7.474,7.474,0,0,0-4.8,2.481,6.95,6.95,0,0,0-1.7,5.022A6.143,6.143,0,0,0,23.608,13.937Z" transform="translate(9.246 4.314)" fill="#fff"/>
    </g>
  </g>
</svg>
