<svg xmlns="http://www.w3.org/2000/svg" width="76" height="76" viewBox="0 0 76 76">
  <g id="グループ_6722" data-name="グループ 6722" transform="translate(-231 -206)">
    <rect id="長方形_4902" data-name="長方形 4902" width="76" height="76" rx="6" transform="translate(231 206)" fill="#eb0018"/>
    <g id="グループ_6361" data-name="グループ 6361" transform="translate(108.767 -78.389)">
      <path id="パス_11650" data-name="パス 11650" d="M.21,7.312.105,0,0,7.206a.273.273,0,0,0,.21.105" transform="translate(181.67 322.449) rotate(90)" fill="#e60020"/>
      <path id="パス_11651" data-name="パス 11651" d="M.105,7H.684L.789,0A5.749,5.749,0,0,1,0,.421" transform="translate(145.796 321.292) rotate(90)" fill="#fff"/>
      <path id="パス_11652" data-name="パス 11652" d="M.053,6.365c.526.263,1.052.526,1.578.842L1.736,0H0" transform="translate(181.67 320.818) rotate(90)" fill="#fff"/>
      <path id="パス_11653" data-name="パス 11653" d="M.105,8.153H.684L.789,0A7.529,7.529,0,0,1,0,.579" transform="translate(146.953 323.028) rotate(90)" fill="#fff"/>
      <path id="パス_11654" data-name="パス 11654" d="M1.631,8.416,1.735,0H0L.105,7.312c.526.368,1.052.736,1.525,1.1" transform="translate(181.67 322.554) rotate(90)" fill="#fff"/>
      <path id="パス_11655" data-name="パス 11655" d="M6.628,12.993A16.516,16.516,0,0,0,.368,0L0,26.3A16.54,16.54,0,0,0,6.628,12.993" transform="translate(173.254 323.817) rotate(90)" fill="#fff"/>
      <path id="パス_11656" data-name="パス 11656" d="M.368,0,0,28.668a9.148,9.148,0,0,0,.947-.579L.579.105A.273.273,0,0,1,.368,0" transform="translate(174.464 322.081) rotate(90)" fill="#fff"/>
      <path id="パス_11657" data-name="パス 11657" d="M16.622,0a16.649,16.649,0,0,0,0,33.3,16.3,16.3,0,0,0,7.469-1.788l-.421-29.93A16.668,16.668,0,0,0,16.622,0" transform="translate(176.884 297.2) rotate(90)" fill="#fff"/>
      <path id="パス_11658" data-name="パス 11658" d="M0,0,.421,29.93a5.749,5.749,0,0,0,.789-.421L1.578.842C1.052.526.526.263,0,0" transform="translate(175.306 320.871) rotate(90)" fill="#e60020"/>
      <path id="パス_11659" data-name="パス 11659" d="M.368,27.984a7.529,7.529,0,0,0,.789-.579L1.525,1.1C1.052.736.526.368,0,0" transform="translate(174.359 322.659) rotate(90)" fill="#e60020"/>
      <path id="パス_11660" data-name="パス 11660" d="M1.049,1.292c.715-.027,2.31-.027,3.685.028v.8c-1.375.028-3.025.028-3.685,0m.8,1.128a7.281,7.281,0,0,0-.468.605c-.055.055-.055.11,0,.138.11.11.275.248.385.358a.143.143,0,0,1,.055.11v.027H.857a5.68,5.68,0,0,0-.138-.66c-.028-.11,0-.11.028-.3S.664,3.244.554,3.437a7.564,7.564,0,0,0-.523.77c-.055.11-.028.11,0,.165A7.648,7.648,0,0,1,.884,6.654c.028.083.11.083.11-.028,0-.413,0-.8-.028-1.21h.853v.358a5.064,5.064,0,0,1-.082.908c-.028.11-.028.11.055.083a.583.583,0,0,0,.193-.083.1.1,0,0,0,.055-.138,5.934,5.934,0,0,1-.055-.77v-.3a7.524,7.524,0,0,1,2.475,1.4c.082.055.11,0,.082-.083A6.019,6.019,0,0,0,3.414,5.417c.77,0,1.54.028,2.228.028.193.028.22-.138.22-.468s-.083-.523-.248-.523c-.908.027-2.035.027-3.053.027a1.11,1.11,0,0,1,.908-.275c.55,0,.468-.935-.11-.88-.468.027-.77.605-.99,1.155H1.984V3.3C1.984,3.189,1.929,3.162,1.847,3.244ZM.939.082A5.686,5.686,0,0,0,.527.769a.142.142,0,0,0,0,.22c.055.083.193.193.3.33.028.028.028.055.028.138v.578S.582,2.722.444,3.052c-.055.165,0,.165.138.11a38.326,38.326,0,0,1,4.785,0c.248.028.3-.138.275-.523-.028-.358-.11-.523-.275-.523h-.44v-.8h.33c.22,0,.275-.11.248-.5C5.477.467,5.422.3,5.23.3,3.937.329,2.067.329,1.379.3c-.11,0-.11-.028-.193-.193C1.132,0,1.022-.056.939.082Z" transform="translate(146.055 337.164) rotate(90)" fill="#fff"/>
      <path id="パス_11661" data-name="パス 11661" d="M2.54,2.465V4.8c-.248,0-.44-.027-.605-.027V2.465H2.54M5.071.073c-.028-.11-.138-.083-.138,0a6.6,6.6,0,0,1-.385,2.393A8.672,8.672,0,0,0,4.273,1.09a.466.466,0,0,1,0-.275C4.3.623,4.163.568,4.081.733A4.994,4.994,0,0,0,3.7,1.5a.208.208,0,0,0-.22-.028c-.44.028-.99.028-1.183.028-.11-.028-.138-.083-.193-.193-.083-.193-.165-.193-.275-.028-.082.138-.275.523-.358.688a.234.234,0,0,0,0,.193,3.662,3.662,0,0,1,.248.3.232.232,0,0,1,.055.165v.578H1.55c-.083,0-.138,0-.193-.22-.028-.165-.193-.138-.22,0-.028.275-.11.8-.11,1.1-.027.11,0,.138.138.11a2.256,2.256,0,0,1,.605-.055v.523s-.138.44-.248.8a7.59,7.59,0,0,0-.99-2.008C.505,3.428.505,3.428.478,3.428A4.891,4.891,0,0,0,1.8.678C1.825.6,1.825.513,1.715.513,1.358.458,1.11.4,1.028.1,1-.037.89-.037.89.128A7.352,7.352,0,0,1,.4,3.263V3.125C.368,2.878.23,2.878.175,3.1.12,3.565.065,3.84.01,4.253c-.028.165,0,.083.082.165A7.784,7.784,0,0,1,1.77,7.058c.055.083.138.055.11-.055-.083-.413-.165-.77-.248-1.128A23.8,23.8,0,0,1,4.768,5.82c0,.33-.028.633-.028.825,0,.083-.055.165.11.11A8.037,8.037,0,0,0,5.786,6.4a.127.127,0,0,0-.055-.248c-.11,0-.165-.138-.165-.193a14.823,14.823,0,0,0-.743-2.613c-.028-.11-.165-.083-.138.055.027.33.055.853.055,1.4-.413,0-.77,0-1.1.028V3.813a3.576,3.576,0,0,0,2.2-3c.028-.083,0-.165-.083-.165A.974.974,0,0,1,5.071.073ZM2.733,2.465a6.7,6.7,0,0,1,.743.028V4.83c-.275,0-.523-.028-.743-.028Zm1.1-.605a3.56,3.56,0,0,1,.605.825,3.445,3.445,0,0,1-.8.935V2.493c.22-.028.193-.275.193-.55Z" transform="translate(154.461 337.158) rotate(90)" fill="#fff"/>
      <path id="パス_11662" data-name="パス 11662" d="M.8.034c.083,1.348.55,2.805,0,4.813-.055.22-.165.358-.193.55-.22.55-.605.5-.605.853,0,.138.275.193.413.138a2.475,2.475,0,0,0,2.063-1.54,7.073,7.073,0,0,0,.385-2.64c-.055-.385-.193-.935-.715-.935-.138,0-.22-.193-.358-.275-.11-.028-.248.027-.358-.028-.275-.22-.3-.55-.523-.743C.88.226.8-.1.8.034" transform="translate(166.11 345.832) rotate(90)" fill="#fff"/>
      <path id="パス_11663" data-name="パス 11663" d="M6.491.031a2.594,2.594,0,0,0-.633.275A8.063,8.063,0,0,0,3.63,1.791a2.1,2.1,0,0,0-.248.248l-.358-.523A14.282,14.282,0,0,0,1.98.113a5.157,5.157,0,0,1,.44.8c.028.11.028.193-.027.22A7.515,7.515,0,0,1,2.008.416c-.22-.3-.44-.44-.605-.413.11.11-.165.165-.358.138a.816.816,0,0,1-.578.44C.193.663.028.8,0,1.021a1.8,1.8,0,0,1,.385.8l.5.77a1.678,1.678,0,0,1,.22.44s.248.523.578,1.238l-.55.825a5.883,5.883,0,0,0-.8,2.7c0,.11.11.44.22.413.743-.11,1.128-.963,1.65-1.458,0,0,.193-.165.468-.44.468.99.88,1.843,1.018,2.09a8.453,8.453,0,0,1,.633,1.4c.055.248.028.523.22.578.193.083.578-.22.743-.275.11-.028.413-.413.385-.385.138-.22.083-.468.275-.853A1.693,1.693,0,0,0,6.216,7.7c.193-.165.11-.44-.028-.908a5.877,5.877,0,0,0-.688-1.4L4.813,4.321A24.717,24.717,0,0,1,7.288,2.7c.3-.165.715-.358.853-.66.082-.193-.138-.33-.11-.55a.776.776,0,0,0,.11-.413.632.632,0,0,0-.33-.468C7.728.581,7.673.443,7.563.416,7.426.361,7.453.223,7.288.168a1.337,1.337,0,0,0-.8-.138" transform="translate(167.565 336.563) rotate(90)" fill="#fff"/>
      <path id="パス_11664" data-name="パス 11664" d="M0,0V0" transform="translate(157.854 342.229) rotate(90)" fill="#fff"/>
      <path id="パス_11665" data-name="パス 11665" d="M.028.138A.481.481,0,0,1,0,0,.3.3,0,0,0,.028.138" transform="translate(177.93 347.922) rotate(90)" fill="#fff"/>
      <path id="パス_11666" data-name="パス 11666" d="M10.5,7.1c-.028-.055-.028-.165-.055-.22a5.235,5.235,0,0,0,.523-3,5.221,5.221,0,0,1-.385,2.365c-.027-.055-.055-.165-.082-.22a5.018,5.018,0,0,0-.275-4.345,5.307,5.307,0,0,1,.028,4.208c-.8,1.568-2.7,1.183-3.878.3.33-.22.688-.578.44-.99a.635.635,0,0,0-.193-.193c-.028-.027-.083-.248-.11-.275a.516.516,0,0,0-.22-.385c-.138-.083-.275-.028-.468.055a3.025,3.025,0,0,0-.743.55A20.632,20.632,0,0,1,2.745,2.09c-.11-.165-.5-.908-.77-1.265C1.865.688,1.727.44,1.48.413A1.053,1.053,0,0,0,.352.578c-.165.138-.138.605-.22.66-.083.027.028.44-.055.5-.138.11-.055.3-.028.385A3.2,3.2,0,0,0,.71,3.19a2.483,2.483,0,0,0,.247.33A30.286,30.286,0,0,0,3.432,6.408l-.165.138A15.415,15.415,0,0,0,.462,10.368c-.275.88.083.99.605.44.33-.3.66-.578.935-.88.3-.33.688-.55.99-.88l.165-.275c.44-.413.908-.633,1.43-1.045l.193-.165A7.811,7.811,0,0,0,6.9,8.663C12.59,10.561,12.673,2.585,9.813,0c.935,1.623,1.98,4.84.688,7.1" transform="translate(181.67 336.981) rotate(90)" fill="#fff"/>
      <path id="パス_11667" data-name="パス 11667" d="M1.76.193A.739.739,0,0,1,1.9.55.5.5,0,0,0,1.4.3H.248A.277.277,0,0,0,0,.385V0A.277.277,0,0,0,.248.083H1.4a.433.433,0,0,1,.358.11" transform="translate(140.913 344.264) rotate(90)" fill="#fff"/>
      <path id="パス_11668" data-name="パス 11668" d="M1.045.082C1.045.275.963.358.8.358H.5C.578.66.605.8.743.8.825.8.908.715.908.578V.413l.138.11A1.191,1.191,0,0,0,1.073.66a.326.326,0,0,1-.33.358A.238.238,0,0,1,.578.935.6.6,0,0,1,.44.605C.413.44.385.358.3.358S.165.44.165.605A.635.635,0,0,0,.248.853L.028.715C.028.66,0,.578,0,.55A.336.336,0,0,1,.083.3c.082-.11.165-.11.33-.11H.66C.825.193.88.165.908,0" transform="translate(142.206 344.649) rotate(90)" fill="#fff"/>
      <path id="パス_11669" data-name="パス 11669" d="M1.265,1.045H.193a.166.166,0,0,0-.165.083V1.1C.028,1.018,0,.963,0,.853H.165A.484.484,0,0,1,0,.5.476.476,0,0,1,.5,0a.535.535,0,0,1,.44.22.414.414,0,0,1,.11.3.349.349,0,0,1-.028.165L.853.8A.85.85,0,0,0,.908.578.341.341,0,0,0,.523.22.35.35,0,0,0,.137.55.312.312,0,0,0,.22.77C.3.853.385.853.523.853h.743A.166.166,0,0,0,1.43.77v.358a.166.166,0,0,0-.165-.083" transform="translate(143.526 344.677) rotate(90)" fill="#fff"/>
      <path id="パス_11670" data-name="パス 11670" d="M1.045.083C1.045.275.963.358.8.358H.5C.578.66.605.8.743.8.825.8.908.715.908.578V.413l.138.11A1.191,1.191,0,0,0,1.073.66a.326.326,0,0,1-.33.358A.238.238,0,0,1,.578.935.6.6,0,0,1,.44.605C.413.44.385.358.3.358S.165.44.165.605A.635.635,0,0,0,.248.853L.028.715C.028.66,0,.578,0,.55A.336.336,0,0,1,.083.3c.082-.11.165-.11.33-.11H.66C.825.193.88.165.908,0" transform="translate(144.763 344.649) rotate(90)" fill="#fff"/>
      <path id="パス_11671" data-name="パス 11671" d="M1.018.688v.33A.25.25,0,0,0,.825.935H.193a.166.166,0,0,0-.165.083V.99C.028.908,0,.853,0,.77L.137.743A.442.442,0,0,1,0,.44.354.354,0,0,1,.358.055H.825A.232.232,0,0,0,1.018,0V.33A.25.25,0,0,0,.825.248H.468c-.22,0-.3.083-.3.248,0,.193.083.248.275.248H.825A.4.4,0,0,0,1.018.688" transform="translate(145.973 344.677) rotate(90)" fill="#fff"/>
      <path id="パス_11672" data-name="パス 11672" d="M.385.743A.253.253,0,0,1,.138.468.246.246,0,0,1,.385.22M.523.77V0A.464.464,0,0,0,0,.468.513.513,0,0,0,.55.99.537.537,0,0,0,1.073.413a1.419,1.419,0,0,0-.055-.3L.825,0a.9.9,0,0,1,.11.358A.422.422,0,0,1,.523.77Z" transform="translate(147.211 344.649) rotate(90)" fill="#fff"/>
      <path id="パス_11673" data-name="パス 11673" d="M.8.825A.819.819,0,0,0,.935.44C.935.275.88.193.8.193.688.193.66.3.578.5S.413.743.3.743C.11.743,0,.605,0,.358A1.583,1.583,0,0,1,.055.083H.22a.714.714,0,0,0-.083.3C.138.5.193.55.275.55s.11-.11.193-.3C.523.083.605,0,.743,0c.193,0,.33.165.33.468a.814.814,0,0,1-.055.275" transform="translate(148.283 344.649) rotate(90)" fill="#fff"/>
      <path id="パス_11674" data-name="パス 11674" d="M.385.743A.253.253,0,0,1,.138.468.246.246,0,0,1,.385.22M.523.77V0C.193,0,0,.165,0,.44A.52.52,0,0,0,.55.99.537.537,0,0,0,1.073.413a1.17,1.17,0,0,0-.055-.3L.825,0a.9.9,0,0,1,.11.358A.422.422,0,0,1,.523.77Z" transform="translate(149.521 344.649) rotate(90)" fill="#fff"/>
      <path id="パス_11675" data-name="パス 11675" d="M1.43.8v.385A.277.277,0,0,0,1.183,1.1H.248A.3.3,0,0,0,0,1.183v-.5C0,.413.165.22.358.22s.3.138.385.33L1.21.165A.515.515,0,0,0,1.4,0L1.43.11a.3.3,0,0,1-.165.275L.688.825C.633.578.55.468.385.468A.231.231,0,0,0,.138.715c0,.055.027.11.027.165H1.183A.277.277,0,0,0,1.43.8" transform="translate(141.711 346.767) rotate(90)" fill="#fff"/>
      <path id="パス_11676" data-name="パス 11676" d="M.385.743A.254.254,0,0,1,.138.468.246.246,0,0,1,.385.22M.523.77V0A.464.464,0,0,0,0,.468.513.513,0,0,0,.55.99.537.537,0,0,0,1.073.413a1.419,1.419,0,0,0-.055-.3L.825,0a1.049,1.049,0,0,1,.11.358A.39.39,0,0,1,.523.77Z" transform="translate(142.838 347.152) rotate(90)" fill="#fff"/>
      <path id="パス_11677" data-name="パス 11677" d="M.8.853A.912.912,0,0,0,.935.44C.935.3.88.22.8.22c-.11,0-.138.11-.22.3C.523.688.44.77.3.77.138.77,0,.633,0,.385A1.21,1.21,0,0,1,.055.11H.22A.615.615,0,0,0,.138.385c0,.11.055.193.138.193.11,0,.11-.138.193-.33C.523.082.605,0,.743,0c.193,0,.33.165.33.5A.5.5,0,0,1,1.018.77" transform="translate(143.911 347.152) rotate(90)" fill="#fff"/>
      <path id="パス_11678" data-name="パス 11678" d="M.468.605H.385C.385.44.248.358,0,.358V.275H.33V0H.523C.468.028.468.083.468.138V.275h.5Q1.21.275,1.21.11A.208.208,0,0,0,1.183,0l.165.11V.165a.264.264,0,0,1-.3.3H.468" transform="translate(144.736 346.876) rotate(90)" fill="#fff"/>
      <path id="パス_11679" data-name="パス 11679" d="M1.018.083C1.018.275.935.358.77.358h-.3C.55.66.578.8.715.8.825.8.88.688.88.55V.413l.138.11A1.191,1.191,0,0,1,1.045.66a.318.318,0,0,1-.33.33A.391.391,0,0,1,.55.935C.468.853.468.743.413.578.385.413.358.358.275.358S.138.44.138.578A.615.615,0,0,0,.22.853L0,.715V.523A.409.409,0,0,1,.055.275a.4.4,0,0,1,.33-.11H.633C.8.165.853.165.88,0" transform="translate(145.973 347.179) rotate(90)" fill="#fff"/>
      <path id="パス_11680" data-name="パス 11680" d="M1.045.578A.354.354,0,0,1,.688.963H.22c-.083,0-.165,0-.193.055V.99A.683.683,0,0,0,0,.77H.578C.77.77.88.688.88.523.88.33.77.275.578.275H.22C.138.275.055.275.028.33V.3A.683.683,0,0,0,0,.083H.8A.25.25,0,0,0,.99,0V.028a.683.683,0,0,0,.028.22L.88.275a.38.38,0,0,1,.165.3" transform="translate(147.211 347.179) rotate(90)" fill="#fff"/>
      <path id="パス_11681" data-name="パス 11681" d="M.165.083c0,.165.11.22.3.22H.825A.232.232,0,0,0,1.018.248v.33A.25.25,0,0,0,.825.5H.22A.214.214,0,0,0,.028.578V.55A.683.683,0,0,0,0,.33L.165.3A.258.258,0,0,1,0,.083V0H.22C.193.028.165.055.165.083" transform="translate(148.036 347.179) rotate(90)" fill="#fff"/>
      <path id="パス_11682" data-name="パス 11682" d="M1.018.083C1.018.275.935.358.77.358h-.3C.55.66.578.8.715.8Q.88.8.88.55V.413l.138.11c0,.055.028.083.028.138a.341.341,0,0,1-.33.358A.238.238,0,0,1,.55.935C.468.853.468.743.413.605.385.44.358.358.275.358S.138.44.138.578A.615.615,0,0,0,.22.853L0,.715V.55C0,.44,0,.358.055.3A.343.343,0,0,1,.385.165H.633C.8.165.853.165.88,0" transform="translate(149.218 347.179) rotate(90)" fill="#fff"/>
      <path id="パス_11683" data-name="パス 11683" d="M1.018.66v.358A.25.25,0,0,0,.825.935H.22a.214.214,0,0,0-.193.083V.99A.848.848,0,0,0,0,.743H.165A.38.38,0,0,1,0,.44.354.354,0,0,1,.358.055H.825A.4.4,0,0,0,1.018,0V.33A.25.25,0,0,0,.825.248H.468C.275.248.165.33.165.5c0,.193.083.248.3.248H.825A.25.25,0,0,0,1.018.66" transform="translate(150.429 347.179) rotate(90)" fill="#fff"/>
      <path id="パス_11684" data-name="パス 11684" d="M.468.633H.385C.385.468.248.358,0,.358V.3H.33V0H.523C.468.055.468.083.468.165V.3h.5C1.128.3,1.21.248,1.21.11A.1.1,0,0,0,1.183.027l.165.11V.193a.275.275,0,0,1-.3.3H.468" transform="translate(151.281 346.876) rotate(90)" fill="#fff"/>
      <path id="パス_11685" data-name="パス 11685" d="M2,0l.316.21a3.355,3.355,0,0,1-.105.473,1.15,1.15,0,0,1-.263.158H1.052c.053.105.1.316.21.631a.348.348,0,0,0,.368.316.4.4,0,0,0,.263-.105A.444.444,0,0,0,2,1.315.9.9,0,0,0,1.946.947l.368.263v.263a.945.945,0,0,1-.158.579.73.73,0,0,1-.526.263A.58.58,0,0,1,1.1,2.051,5.46,5.46,0,0,1,.947,1.42,1.59,1.59,0,0,0,.789.947C.736.894.684.842.631.842A.289.289,0,0,0,.368,1c-.053.053-.053.158-.053.316a1.819,1.819,0,0,0,.158.631L0,1.631V1.315Q0,.684.316.526C.421.421.579.421.894.421h.842a.726.726,0,0,0,.21-.158A2.278,2.278,0,0,0,2,0" transform="translate(155.843 306.037) rotate(90)" fill="#e60020"/>
      <path id="パス_11686" data-name="パス 11686" d="M1.578,0A.534.534,0,0,1,2.1.263a1.268,1.268,0,0,1,.21.789,2.641,2.641,0,0,1-.105.631l-.473.158A1.677,1.677,0,0,0,2.051.947.76.76,0,0,0,1.946.579.289.289,0,0,0,1.683.421a.273.273,0,0,0-.21.105A2.173,2.173,0,0,0,1.262,1,2.028,2.028,0,0,1,1,1.578a.478.478,0,0,1-.368.158.552.552,0,0,1-.473-.263A1.316,1.316,0,0,1,0,.789,1.622,1.622,0,0,1,.053.263H.473a.876.876,0,0,0-.21.579.748.748,0,0,0,.105.316c.053.053.105.105.158.105a.21.21,0,0,0,.21-.105A1.257,1.257,0,0,0,.894.789,1.866,1.866,0,0,1,1.157.158.6.6,0,0,1,1.578,0" transform="translate(158.526 306.037) rotate(90)" fill="#e60020"/>
      <path id="パス_11687" data-name="パス 11687" d="M3.261,0V.789L3.1.631H1.946a.9.9,0,0,0-.421.053.513.513,0,0,0-.21.473.513.513,0,0,0,.21.473.163.163,0,0,0,.105.053.394.394,0,0,0,.263.053h.894A1.86,1.86,0,0,0,3.1,1.683q.079,0,.158-.158v.789L3.1,2.157H.263l-.158.158V2A.4.4,0,0,0,0,1.736H1.262A1.041,1.041,0,0,1,1,1,.781.781,0,0,1,1.315.316.643.643,0,0,1,1.788.158H3.1q.079,0,.158-.158" transform="translate(161.84 305.038) rotate(90)" fill="#e60020"/>
      <path id="パス_11688" data-name="パス 11688" d="M1.157,0A1.355,1.355,0,0,1,2,.368a1.469,1.469,0,0,1,.316.947A1.2,1.2,0,0,1,2,2.157a.981.981,0,0,1-.842.368,1.033,1.033,0,0,1-.894-.473A1.087,1.087,0,0,1,0,1.21,1.29,1.29,0,0,1,.316.368,1.144,1.144,0,0,1,1.157,0M1.21.526a1.057,1.057,0,0,0-.684.21.655.655,0,0,0-.21.579.675.675,0,0,0,.21.526,1.1,1.1,0,0,0,.579.21.871.871,0,0,0,.631-.263A.534.534,0,0,0,2,1.262a.791.791,0,0,0-.21-.579A1.06,1.06,0,0,0,1.21.526Z" transform="translate(165.206 306.037) rotate(90)" fill="#e60020"/>
      <path id="パス_11689" data-name="パス 11689" d="M3.261,1.473v.789L3.1,2.1H.263c-.053.053-.105.053-.158.158V1.946A.564.564,0,0,0,0,1.631H3.1q.079,0,.158-.158M3.261,0V.368c0,.158,0,.21-.053.263,0,.053-.105.158-.21.21a4.6,4.6,0,0,0-.526.421c-.105.053-.21.158-.368.263-.053,0-.053,0-.105.053l-.473-.421C1.368,1,1.262.894,1.21.894S1.1.947,1.052,1V.263L2,1.1A6.677,6.677,0,0,1,2.788.473Z" transform="translate(168.31 305.038) rotate(90)" fill="#e60020"/>
      <path id="パス_11690" data-name="パス 11690" d="M2.314,0V.579H2a.893.893,0,0,1,.316.316.9.9,0,0,1,.053.368A.819.819,0,0,1,2.051,2a1.122,1.122,0,0,1-.631.158H.263l-.158.158V2A.309.309,0,0,0,0,1.736H1.368a.643.643,0,0,0,.473-.158A.518.518,0,0,0,2,1.157.6.6,0,0,0,1.841.736.815.815,0,0,0,1.42.631H.263Q.184.631.105.789V.473A.445.445,0,0,0,0,.158H2.157L2.314,0" transform="translate(171.255 305.984) rotate(90)" fill="#e60020"/>
      <path id="パス_11691" data-name="パス 11691" d="M4.261,0a1.924,1.924,0,0,1,1.21.526A2.7,2.7,0,0,1,6.1,2.367a5.509,5.509,0,0,1-.263,1.578l-1.1.263a3.035,3.035,0,0,0,.684-1.946,1.434,1.434,0,0,0-.263-.947A.8.8,0,0,0,4.524.947a.909.909,0,0,0-.631.316,8.682,8.682,0,0,0-.579,1.1,4.444,4.444,0,0,1-.736,1.21,1.222,1.222,0,0,1-1,.473,1.3,1.3,0,0,1-1.1-.579A2.611,2.611,0,0,1,0,1.841,6.2,6.2,0,0,1,.21.526h1A1.911,1.911,0,0,0,.631,1.894a1.338,1.338,0,0,0,.263.842.6.6,0,0,0,.579.316A.583.583,0,0,0,2,2.788a3.068,3.068,0,0,0,.579-1A8.314,8.314,0,0,1,3.314.473,1.2,1.2,0,0,1,4.261,0" transform="translate(153.002 311.245) rotate(90)" fill="#e60020"/>
      <path id="パス_11692" data-name="パス 11692" d="M5.786,0V1.788q-.158-.316-.316-.316a1.714,1.714,0,0,0-.526.158L3.63,2.157V4.366l1.315.526a1.623,1.623,0,0,0,.473.053c.158,0,.263-.105.368-.316V6.26a1.5,1.5,0,0,0-.368-.421,5.95,5.95,0,0,0-.789-.368L.736,3.893a1.338,1.338,0,0,0-.368-.105c-.158,0-.263.105-.368.263V2.683L4.629.842A3.033,3.033,0,0,0,5.365.421,1.6,1.6,0,0,0,5.786,0M3.051,2.367.736,3.261l2.314.894Z" transform="translate(160.156 311.402) rotate(90)" fill="#e60020"/>
      <path id="パス_11693" data-name="パス 11693" d="M0,0,1.052.263A.556.556,0,0,0,.736.631v1.21h4.1a1.962,1.962,0,0,0,.631-.105.811.811,0,0,0,.368-.368V3.1a.84.84,0,0,0-.473-.368H.736v.684a2.167,2.167,0,0,0,.053.631.981.981,0,0,0,.263.526L0,4.261a1.306,1.306,0,0,0,.053-.473V.158C.053.105,0,.053,0,0" transform="translate(165.048 311.35) rotate(90)" fill="#e60020"/>
      <path id="パス_11694" data-name="パス 11694" d="M3,0A2.865,2.865,0,0,1,5.208.947,3.353,3.353,0,0,1,6.1,3.261a3.225,3.225,0,0,1-.894,2.262,2.724,2.724,0,0,1-2.1.947A2.865,2.865,0,0,1,.894,5.523,3.389,3.389,0,0,1,0,3.156,3.135,3.135,0,0,1,.894.894,2.985,2.985,0,0,1,1.841.263,3.318,3.318,0,0,1,3,0m.158,1a2.52,2.52,0,0,0-1.736.631A1.926,1.926,0,0,0,.684,3.261a2.141,2.141,0,0,0,.631,1.578,2.179,2.179,0,0,0,1.631.631,2.5,2.5,0,0,0,1.841-.684,2,2,0,0,0,.684-1.578,2.141,2.141,0,0,0-.631-1.578A2.3,2.3,0,0,0,3.156,1Z" transform="translate(172.15 311.245) rotate(90)" fill="#e60020"/>
      <path id="パス_11695" data-name="パス 11695" d="M.053,0l2.42.947a3.115,3.115,0,0,1-.21.316c-.105.053-.21.158-.316.158l-1.21.473,1.736.684a3.116,3.116,0,0,1-.21.316l-.316.158L.579,3.577c-.158.105-.316.105-.316.158a.726.726,0,0,1-.21.158V3.577A.394.394,0,0,0,0,3.314a1.09,1.09,0,0,0,.316-.105l1.473-.526L.579,2.209C.421,2.157.368,2.1.263,2.1c-.053,0-.105.053-.21.158V1.631H.158a.23.23,0,0,1,.158-.053l1.473-.526L.579.579C.421.526.368.473.316.473.21.473.158.526.053.631" transform="translate(152.845 305.932) rotate(90)" fill="#e60020"/>
    </g>
  </g>
</svg>
