<svg xmlns="http://www.w3.org/2000/svg" xmlns:xlink="http://www.w3.org/1999/xlink" width="162.593" height="48.176" viewBox="0 0 162.593 48.176">
  <defs>
    <linearGradient id="linear-gradient" x1="0.915" y1="1.03" x2="-0.386" y2="0.361" gradientUnits="objectBoundingBox">
      <stop offset="0" stop-color="#00a0ff"/>
      <stop offset="0.01" stop-color="#00a1ff"/>
      <stop offset="0.26" stop-color="#00beff"/>
      <stop offset="0.51" stop-color="#00d2ff"/>
      <stop offset="0.76" stop-color="#00dfff"/>
      <stop offset="1" stop-color="#00e3ff"/>
    </linearGradient>
    <linearGradient id="linear-gradient-2" x1="1.077" y1="0.734" x2="-1.306" y2="0.734" gradientUnits="objectBoundingBox">
      <stop offset="0" stop-color="#ffe000"/>
      <stop offset="0.41" stop-color="#ffbd00"/>
      <stop offset="0.78" stop-color="orange"/>
      <stop offset="1" stop-color="#ff9c00"/>
    </linearGradient>
    <linearGradient id="linear-gradient-3" x1="0.863" y1="-0.023" x2="-0.502" y2="-1.791" gradientUnits="objectBoundingBox">
      <stop offset="0" stop-color="#ff3a44"/>
      <stop offset="1" stop-color="#c31162"/>
    </linearGradient>
    <linearGradient id="linear-gradient-4" x1="-0.188" y1="2.696" x2="0.421" y2="1.906" gradientUnits="objectBoundingBox">
      <stop offset="0" stop-color="#32a071"/>
      <stop offset="0.07" stop-color="#2da771"/>
      <stop offset="0.48" stop-color="#15cf74"/>
      <stop offset="0.8" stop-color="#06e775"/>
      <stop offset="1" stop-color="#00f076"/>
    </linearGradient>
  </defs>
  <g id="レイヤー_2" data-name="レイヤー 2" transform="translate(1 0.1)">
    <g id="Layer_3" data-name="Layer 3">
      <rect id="長方形_4903" data-name="長方形 4903" width="161" height="48" rx="5"/>
      <path id="パス_12464" data-name="パス 12464" d="M156.571.964a5.058,5.058,0,0,1,5.058,5.058V42.154a5.058,5.058,0,0,1-5.058,5.058H6.022A5.058,5.058,0,0,1,.964,42.154V6.022A5.058,5.058,0,0,1,6.022.964h150.55m0-.964H6.022A6.022,6.022,0,0,0,0,6.022V42.154a6.022,6.022,0,0,0,6.022,6.022h150.55a6.022,6.022,0,0,0,6.022-6.022V6.022A6.022,6.022,0,0,0,156.571,0Z" transform="translate(-1 -0.1)" fill="#a6a6a6"/>
      <path id="パス_12465" data-name="パス 12465" d="M69.378,13.593a4.45,4.45,0,1,0,4.474,4.45,4.391,4.391,0,0,0-4.474-4.45Zm0,7.178a2.572,2.572,0,0,1-2.5-2.692,2.512,2.512,0,1,1,5.013,0,2.572,2.572,0,0,1-2.512,2.656Zm-9.738-7.178a4.45,4.45,0,1,0,4.474,4.45,4.391,4.391,0,0,0-4.474-4.45Zm0,7.178a2.572,2.572,0,0,1-2.5-2.692,2.512,2.512,0,1,1,5.013,0,2.572,2.572,0,0,1-2.512,2.656ZM48.059,14.957v1.89h4.51A3.828,3.828,0,0,1,51.54,19.24a4.582,4.582,0,0,1-3.481,1.388,5.025,5.025,0,0,1,0-10.037,4.785,4.785,0,0,1,3.4,1.34L52.8,10.6a6.616,6.616,0,0,0-4.785-1.9A7.011,7.011,0,0,0,41,15.581a7.011,7.011,0,0,0,7.011,6.914A6.353,6.353,0,0,0,52.8,20.556a6.257,6.257,0,0,0,1.627-4.415,5.862,5.862,0,0,0-.1-1.2Zm47.376,1.472a4.139,4.139,0,0,0-3.8-2.835,4.235,4.235,0,0,0-4.2,4.45,4.355,4.355,0,0,0,4.415,4.45,4.438,4.438,0,0,0,3.709-1.974L94.035,19.5a2.536,2.536,0,0,1-2.189,1.2,2.261,2.261,0,0,1-2.153-1.352l5.982-2.393Zm-6.066,1.483a2.393,2.393,0,0,1,2.333-2.6,1.723,1.723,0,0,1,1.651.945Zm-4.785,4.307h1.878V9.143H84.536Zm-3.194-7.633h-.072a3.075,3.075,0,0,0-2.393-.993,4.45,4.45,0,0,0,0,8.9,3.051,3.051,0,0,0,2.393-1.017h.072v.646A2.273,2.273,0,0,1,79,24.731a2.393,2.393,0,0,1-2.237-1.591l-1.7.718A4.223,4.223,0,0,0,79,26.478c2.3,0,4.235-1.34,4.235-4.63v-8h-1.89ZM79.14,20.736a2.56,2.56,0,0,1-2.476-2.68A2.584,2.584,0,0,1,79.14,15.34a2.512,2.512,0,0,1,2.393,2.716,2.476,2.476,0,0,1-2.441,2.68ZM104.6,9.143H99.921V22.219h1.95V17.266H104.6a4.139,4.139,0,0,0,4.283-4.056A4.151,4.151,0,0,0,104.6,9.143Zm0,6.3h-2.728V10.961h2.776a2.249,2.249,0,1,1,0,4.486Zm12.059-1.878a3.661,3.661,0,0,0-3.481,2l1.723.73a2.118,2.118,0,0,1,3.84.718v.132a4.474,4.474,0,0,0-2.034-.5c-1.866,0-3.769,1.029-3.769,2.943a3.015,3.015,0,0,0,3.242,2.883,2.764,2.764,0,0,0,2.584-1.28h0v1.029h1.878V17.182c.024-2.321-1.7-3.613-3.936-3.613Zm-.239,7.178c-.634,0-1.531-.323-1.531-1.113,0-1,1.113-1.4,2.07-1.4a3.481,3.481,0,0,1,1.806.395,2.393,2.393,0,0,1-2.3,2.106Zm11.114-6.9L125.3,19.515h-.072L122.9,13.845h-2.094l3.481,7.92-1.938,4.415h2.034L129.7,13.845Zm-17.575,8.375h1.95V9.143h-1.95Z" transform="translate(8.051 1.708)" fill="#fff"/>
      <path id="パス_12466" data-name="パス 12466" d="M10.527,7.554A2.393,2.393,0,0,0,10,9.229V35.692a2.321,2.321,0,0,0,.562,1.675l.084.1L25.434,22.64v-.359L10.611,7.47Z" transform="translate(1.963 1.467)" fill="url(#linear-gradient)"/>
      <path id="パス_12467" data-name="パス 12467" d="M27.805,25.961,22.9,21.02v-.359l4.905-4.941.108.072,5.874,3.326c1.675.945,1.675,2.5,0,3.457L27.937,25.9Z" transform="translate(4.497 3.087)" fill="url(#linear-gradient-2)"/>
      <path id="パス_12468" data-name="パス 12468" d="M30.4,25.049,25.347,20,10.44,34.907a1.938,1.938,0,0,0,2.476.084L30.4,25.049" transform="translate(2.05 3.927)" fill="url(#linear-gradient-3)"/>
      <path id="パス_12469" data-name="パス 12469" d="M30.4,17.478,12.916,7.548a1.926,1.926,0,0,0-2.476.072L25.347,22.527Z" transform="translate(2.05 1.401)" fill="url(#linear-gradient-4)"/>
      <path id="パス_12470" data-name="パス 12470" d="M30.252,24.13,12.916,34a1.986,1.986,0,0,1-2.393,0h0l-.084.084h0l.084.1h0a1.986,1.986,0,0,0,2.393,0L30.4,24.238Z" transform="translate(2.05 4.738)" opacity="0.2" style="isolation: isolate"/>
      <path id="パス_12471" data-name="パス 12471" d="M10.528,32.6A2.393,2.393,0,0,1,10,30.91v.179a2.321,2.321,0,0,0,.562,1.675l.084-.084Z" transform="translate(1.962 6.07)" opacity="0.12" style="isolation: isolate"/>
      <path id="パス_12472" data-name="パス 12472" d="M32.982,21.555,27,24.941l.108.108,5.874-3.326A2.094,2.094,0,0,0,34.25,20h0A2.225,2.225,0,0,1,32.982,21.555Z" transform="translate(5.302 3.927)" opacity="0.12" style="isolation: isolate"/>
      <path id="パス_12473" data-name="パス 12473" d="M13,7.714,36.32,20.97a2.225,2.225,0,0,1,1.268,1.555h0A2.094,2.094,0,0,0,36.32,20.8L13,7.547c-1.663-.957-3-.167-3,1.747v.179C10,7.559,11.34,6.769,13,7.714Z" transform="translate(1.964 1.402)" fill="#fff" opacity="0.25" style="isolation: isolate"/>
      <path id="パス_12474" data-name="パス 12474" d="M41.947,27.1c.706-.072,2.716-.263,4.678-.431,1.2-.1,2.165-.156,2.871-.179v.861a8.446,8.446,0,0,0-2.082.167,3.733,3.733,0,0,0-2.393,3.374c0,2.07,1.938,2.728,3.673,2.8l-.311.9c-1.974-.084-4.223-1.137-4.223-3.517a4.319,4.319,0,0,1,1.986-3.589c-.945.108-3.852.395-5,.634l-.1-.957A3.253,3.253,0,0,0,41.947,27.1Zm6.927,3.051-.55.251a10.516,10.516,0,0,0-.885-1.519l.55-.227a11.485,11.485,0,0,1,.885,1.531Zm1.2-.467-.562.263a9.57,9.57,0,0,0-.921-1.507l.538-.239a14.573,14.573,0,0,1,.981,1.519Z" transform="translate(8.061 5.202)" fill="#fff" stroke="#fff" stroke-miterlimit="10" stroke-width="0.2"/>
      <path id="パス_12475" data-name="パス 12475" d="M59.145,31.8H54.718V34.19c0,.574-.167.814-.562.945a8.374,8.374,0,0,1-2.225.132,3.781,3.781,0,0,0-.347-.79h2c.251,0,.335-.084.335-.3V31.785H49.49v-.778h4.427V29.26H50.208v-.766h3.709V26.832c-1.2.132-2.393.215-3.517.263a2.68,2.68,0,0,0-.2-.706,36.07,36.07,0,0,0,7.286-.909l.6.634a18.531,18.531,0,0,1-3.362.634v1.747h3.816v.766H54.718v1.747h4.427Z" transform="translate(9.718 5.003)" fill="#fff" stroke="#fff" stroke-miterlimit="10" stroke-width="0.2"/>
      <path id="パス_12476" data-name="パス 12476" d="M60.555,26.264a4.343,4.343,0,0,1-.2.718,24.657,24.657,0,0,0-.514,4.08,12.279,12.279,0,0,0,.084,1.472c.179-.491.419-1.113.586-1.531l.467.335c-.263.766-.658,1.89-.754,2.393a2.393,2.393,0,0,0,0,.479v.371h-.766A13.328,13.328,0,0,1,59,31.217a29.214,29.214,0,0,1,.479-4.283c0-.239.072-.526.072-.754Zm2.393,5.168a3.469,3.469,0,0,0-.144.981c0,.479.323.957,1.783.957a11.126,11.126,0,0,0,2.692-.227v.909a14.045,14.045,0,0,1-2.668.215c-1.783,0-2.584-.6-2.584-1.591a6.329,6.329,0,0,1,.179-1.268Zm-.359-4.355a18.579,18.579,0,0,0,4.391,0v.885a26.751,26.751,0,0,1-4.379,0Z" transform="translate(11.585 5.141)" fill="#fff" stroke="#fff" stroke-miterlimit="10" stroke-width="0.2"/>
      <path id="パス_12477" data-name="パス 12477" d="M72.569,26a9.224,9.224,0,0,0,4.462,8.494,3.744,3.744,0,0,0-.646.658,9.272,9.272,0,0,1-4.271-5.982,9.571,9.571,0,0,1-4.295,5.982,6.458,6.458,0,0,0-.73-.634c2.393-1.2,3.709-3.4,4.367-6.412l.479.072a12.54,12.54,0,0,1-.167-1.364H69.136V26Z" transform="translate(13.174 5.105)" fill="#fff" stroke="#fff" stroke-miterlimit="10" stroke-width="0.2"/>
      <path id="パス_12478" data-name="パス 12478" d="M85.774,33.535a2.764,2.764,0,0,1-1.962.885,1.185,1.185,0,0,1-1.2-1.352c0-1.2.395-2.943.395-3.972,0-.622-.311-.873-.849-.873a5.8,5.8,0,0,0-3.134,2.058c0,.455,0,.873,0,1.2V34.7h-.945V30.915c-.526.79-1.2,1.818-1.735,2.524L76,32.745c.586-.742,1.818-2.393,2.393-3.242V28.474l-2.07.275-.1-.9a4.688,4.688,0,0,0,.706,0,12.652,12.652,0,0,0,1.519-.167v-1a4.462,4.462,0,0,0,0-.79h1.017c0,.263-.144.861-.215,1.6h0l.311.371c-.132.191-.311.491-.479.742s0,.407,0,.61a5.982,5.982,0,0,1,3.266-1.795,1.328,1.328,0,0,1,1.5,1.436c0,1.065-.395,2.907-.395,3.984,0,.371.179.646.55.646a2.393,2.393,0,0,0,1.6-.885Z" transform="translate(14.923 5.084)" fill="#fff" stroke="#fff" stroke-miterlimit="10" stroke-width="0.2"/>
      <path id="パス_12479" data-name="パス 12479" d="M89.9,28.955a23.858,23.858,0,0,0,.108,2.656,8.47,8.47,0,0,1,3.314,1.818l-.514.8a7.37,7.37,0,0,0-2.764-1.759v.718c0,.873-.538,1.627-1.962,1.627s-2.536-.443-2.536-1.639c0-.957.849-1.747,2.692-1.747a5.659,5.659,0,0,1,.9.06c0-.861-.084-1.842-.084-2.476v-1.95A7.334,7.334,0,0,0,88.96,26h1.029c0,.227-.072.73-.084,1.053s0,.67,0,1.089a26.841,26.841,0,0,0,3.158-.2v.814c-.957.084-2.321.156-3.194.179Zm-.73,3.278a5.108,5.108,0,0,0-1.041-.1c-1.1,0-1.723.371-1.723.957S87,34,88.026,34c.778,0,1.2-.371,1.2-1.1A3.421,3.421,0,0,1,89.175,32.233Z" transform="translate(16.799 5.105)" fill="#fff" stroke="#fff" stroke-miterlimit="10" stroke-width="0.2"/>
      <path id="パス_12480" data-name="パス 12480" d="M98.08,29.23a10,10,0,0,0-2.907.55c-.323.084-.634.215-.9.311L94,29.1a5.816,5.816,0,0,0,.969-.156,14.464,14.464,0,0,1,3.194-.55,2.393,2.393,0,0,1,2.656,2.393c0,2.309-2.058,3.589-4.785,4.032l-.5-.814c2.584-.323,4.415-1.34,4.415-3.254A1.6,1.6,0,0,0,98.08,29.23Zm1.9-2.776-.132.825c-1.2-.072-3.338-.287-4.546-.5L95.436,26a29.287,29.287,0,0,0,4.546.455Z" transform="translate(18.458 5.105)" fill="#fff" stroke="#fff" stroke-miterlimit="10" stroke-width="0.2"/>
    </g>
  </g>
</svg>
